<svg clip-rule="evenodd" fill-rule="evenodd" stroke-linejoin="round" stroke-miterlimit="2" viewBox="0 0 192 192" xmlns="http://www.w3.org/2000/svg"><circle cx="96.00036" cy="96.00036" fill="#cc8849" r="96.00035" stroke-width="1.01053"/><circle cx="96.00036" cy="96.00036" fill="#0d1a26" r="96.00035" stroke-width="1.01053"/><path d="m16.155 32h7.872v7.872h-7.872z" fill="#fedab8" transform="matrix(16.006725 0 0 11.00463 -225.5869125 -312.77295)"/><path d="m16.155 32h7.872v7.872h-7.872z" fill="#fedab8" transform="matrix(21.3423 0 0 10.67115 -332.7824625 -320.4768)"/><g fill="#652d10"><path d="m54.0003320625 84h21.0008232v21.0008232h-21.0008232z" stroke-width="2.6677875"/><path d="m116.8953320625 84h21.0008232v21.0008232h-21.0008232z" stroke-width="2.6677875"/><path d="m0 8.021h8.042v-8.021h47.958v8h8v24h-7.993v-8h-7.971v-8h-24.036v7.966h-16v8.034h-8z" transform="matrix(2.625 0 0 2.625 12 0)"/></g><path d="m24.027 32v7.872c-2.187 5.885-5.873 5.739-7.872 0v-7.872z" fill="#00b95c" transform="matrix(16.0067 0 0 5.38811 -225.587 -46.4195)"/></svg>