<svg viewBox="0 0 16 16" xmlns="http://www.w3.org/2000/svg" fill-rule="evenodd" clip-rule="evenodd" stroke-linejoin="round" stroke-miterlimit="1.414"><g><path fill="none" d="M0 0h16v16H0z"/><clipPath id="a"><path d="M0 0h16v16H0z"/></clipPath><g clip-path="url(#a)"><path d="M8.055 6.72c.354.006.688-.024.783-.106 1.175-1.019 5.891-.567 7.162-.092l-.04.553c-.246.007-.525.313-.57.688-.326 1.613-.648 2.223-1.138 2.523-1.697.533-3.007.376-4.508-.099C9.04 9.52 8.643 8.52 8.398 7.66A1.211 1.211 0 0 0 8 7.507a1.211 1.211 0 0 0-.398.152c-.245.861-.642 1.861-1.346 2.528-1.501.475-2.81.632-4.508.1-.49-.301-.812-.911-1.138-2.524-.045-.375-.324-.68-.57-.688L0 6.522c1.271-.475 5.987-.927 7.162.092.095.082.429.112.783.106v-.003L8 6.72c.018 0 .037 0 .055-.002v.003zm6.933.552c-.042-.407-.217-.623-.469-.728-2.231-.439-4.214-.47-5.608.464-.104 1.34.283 2.234 1.02 2.956 1.746.488 3.186.569 4.197.077.647-.43.848-1.47.86-2.769zm-13.975 0c.04-.407.216-.623.468-.728 2.231-.439 4.214-.47 5.608.464.105 1.34-.283 2.234-1.02 2.956-1.746.488-3.186.569-4.197.077-.647-.43-.848-1.47-.86-2.769z"/><path d="M8.055 6.92c.354.006.688-.024.783-.106 1.175-1.019 5.891-.567 7.162-.092l-.04.553c-.246.007-.525.313-.57.688-.326 1.613-.648 2.223-1.138 2.523-1.697.533-3.007.376-4.508-.099C9.04 9.72 8.643 8.72 8.398 7.86A1.211 1.211 0 0 0 8 7.707a1.211 1.211 0 0 0-.398.152c-.245.861-.642 1.861-1.346 2.528-1.501.475-2.81.632-4.508.1-.49-.301-.812-.911-1.138-2.524-.045-.375-.324-.68-.57-.688L0 6.722c1.271-.475 5.987-.927 7.162.092.095.082.429.112.783.106v-.003L8 6.92c.018 0 .037 0 .055-.002v.003zm6.933.552c-.042-.407-.217-.623-.469-.728-2.231-.439-4.214-.47-5.608.464-.104 1.34.283 2.234 1.02 2.956 1.746.488 3.186.569 4.197.077.647-.43.848-1.47.86-2.769zm-13.975 0c.04-.407.216-.623.468-.728 2.231-.439 4.214-.47 5.608.464.105 1.34-.283 2.234-1.02 2.956-1.746.488-3.186.569-4.197.077-.647-.43-.848-1.47-.86-2.769z"/></g></g></svg>