<?xml version="1.0" encoding="UTF-8" standalone="no"?><!DOCTYPE svg PUBLIC "-//W3C//DTD SVG 1.1//EN" "http://www.w3.org/Graphics/SVG/1.1/DTD/svg11.dtd"><svg width="100%" height="100%" viewBox="0 0 180 60" version="1.1" xmlns="http://www.w3.org/2000/svg" xmlns:xlink="http://www.w3.org/1999/xlink" xml:space="preserve" xmlns:serif="http://www.serif.com/" style="fill-rule:evenodd;clip-rule:evenodd;stroke-linejoin:round;stroke-miterlimit:1.41421;"><rect id="nintendo" x="0" y="0" width="180" height="60" style="fill:none;"/><clipPath id="_clip1"><rect x="0" y="0" width="180" height="60"/></clipPath><g clip-path="url(#_clip1)"><g><path d="M14.651,32.606l5.398,0l7.474,12.089l-0.005,-12.089l5.359,0l0,17.335l-5.35,0l-7.512,-12.089l0,12.089l-5.368,0l0.005,-17.335m47.364,1.782l5.215,0l0,2.331l2.82,0l0,1.717l-2.82,0l0.004,11.505l-5.225,0l0.004,-11.505l-2.833,0l0,-1.713l2.837,0l-0.004,-2.336m-26.153,4.027l5.212,0l0,11.526l-5.212,0l0,-11.526m-0.013,-5.812l5.225,0l0,3.542l-5.225,0l0,-3.542Zm93.462,11.483l-0.005,2.439c0,1.838 -1.086,2.595 -2.132,2.595c-1.042,0 -2.132,-0.757 -2.132,-2.595l0,-2.483l0.004,-2.405c0,-1.83 1.09,-2.582 2.128,-2.582c1.042,0 2.132,0.753 2.132,2.582c0,0.696 0,1.99 0.004,2.452l0,-0.004l0,0.001Zm-2.093,-6.457c-4.208,0 -7.621,2.898 -7.621,6.47c0,3.577 3.413,6.475 7.621,6.475c4.209,0 7.617,-2.898 7.617,-6.475c0,-3.573 -3.407,-6.47 -7.617,-6.47Zm-14.463,-5.022l5.147,0l0,17.335l-5.156,0l-0.004,-0.666c-1.994,1.25 -4.243,1.246 -5.999,0.433c-0.467,-0.221 -3.564,-1.704 -3.564,-5.718c0,-3.041 2.872,-6.367 6.626,-6.034c1.237,0.108 2.119,0.558 2.95,1.029l0,-6.38l0,0.001Zm0.039,11.513l0,-2.059c0,-1.786 -1.233,-2.24 -2.041,-2.24c-0.83,0 -2.046,0.454 -2.046,2.24l0.004,2.05l-0.004,2.054c0,1.778 1.215,2.245 2.041,2.245c0.813,0 2.046,-0.467 2.046,-2.245l0,-2.046l0,0.001Zm-59.514,-6.241c1.946,-0.052 5.904,1.224 5.878,5.787c-0.009,0.813 -0.004,6.271 -0.004,6.271l-5.182,0l0,-7.569c0,-1.003 -0.96,-2.124 -2.379,-2.124c-1.423,0 -2.474,1.12 -2.474,2.124l0.004,7.569l-5.177,0l-0.004,-11.526l5.182,-0.004c0,0 -0.009,0.93 0,1.215c0.995,-0.952 2.435,-1.691 4.156,-1.743m42.364,0c1.951,-0.052 5.904,1.224 5.874,5.787c-0.004,0.813 0,6.271 0,6.271l-5.177,0l0,-7.569c0,-1.003 -0.965,-2.124 -2.383,-2.124c-1.419,0 -2.474,1.12 -2.474,2.124l0.004,7.569l-5.177,0l0.004,-11.526l5.173,-0.004l0,1.215c0.999,-0.952 2.435,-1.691 4.156,-1.743" style="fill:#8f8f8f;fill-rule:nonzero;"/><path d="M75.089,42.717c-0.009,-1.012 0.013,-1.687 0.346,-2.262c0.407,-0.709 1.155,-1.051 1.834,-1.051l-0.004,0c0.683,0 1.432,0.342 1.838,1.051c0.329,0.575 0.346,1.25 0.337,2.262l-4.351,0Zm4.334,3.477l0.004,0.696c0,2.111 -1.388,2.578 -2.158,2.578c-0.77,0 -2.18,-0.467 -2.18,-2.578l0.004,-2.379c0,0 9.818,0.004 9.818,0c0,-3.577 -3.451,-6.54 -7.69,-6.54c-4.239,0 -7.677,2.898 -7.677,6.475c0,3.573 3.438,6.47 7.677,6.47c3.516,0 6.488,-2.007 7.396,-4.727l-5.194,0.004l0,0.001Zm56.404,-12.015c0.843,0 1.263,0.285 1.263,0.852c0,0.389 -0.242,0.683 -0.649,0.783l0.662,1.323l-0.8,0l-0.562,-1.211l-0.355,0l0,1.211l-0.718,0l0,-2.958l1.159,0Zm-0.065,-1.155c-1.475,0 -2.669,1.198 -2.669,2.669c0,1.475 1.194,2.669 2.669,2.669c1.475,0 2.669,-1.194 2.669,-2.669c0,-1.471 -1.194,-2.669 -2.669,-2.669Zm2.158,2.669c0,1.194 -0.969,2.158 -2.158,2.158c-1.194,0 -2.158,-0.965 -2.158,-2.158c0,-1.189 0.965,-2.158 2.158,-2.158c1.189,0 2.158,0.969 2.158,2.158Zm-2.535,-0.199l0.355,0c0.411,0 0.606,-0.125 0.606,-0.42c0,-0.307 -0.212,-0.441 -0.644,-0.441l-0.316,0l0,0.861l-0.001,0Zm-115.835,24.506c-11.717,-0.004 -19.55,-8.309 -19.55,-18.377c0,-10.073 7.85,-18.473 19.532,-18.447l110.412,0c11.686,-0.026 19.537,8.373 19.537,18.447c0,10.069 -7.833,18.373 -19.55,18.377l-110.382,0l0.001,0Zm0.039,-32.296c-9.282,0.017 -14.976,6.22 -14.976,13.892c0,7.668 5.66,13.923 14.976,13.888l110.304,0c9.316,0.035 14.974,-6.22 14.974,-13.888c0,-7.673 -5.692,-13.875 -14.974,-13.892l-110.304,0l0,0Z" style="fill:#8f8f8f;fill-rule:nonzero;"/></g></g></svg>