<?xml version="1.0" encoding="UTF-8" standalone="no"?><!DOCTYPE svg PUBLIC "-//W3C//DTD SVG 1.1//EN" "http://www.w3.org/Graphics/SVG/1.1/DTD/svg11.dtd"><svg width="100%" height="100%" viewBox="0 0 180 60" version="1.1" xmlns="http://www.w3.org/2000/svg" xmlns:xlink="http://www.w3.org/1999/xlink" xml:space="preserve" xmlns:serif="http://www.serif.com/" style="fill-rule:evenodd;clip-rule:evenodd;stroke-linejoin:round;stroke-miterlimit:1.41421;"><rect id="rankia" x="0" y="0" width="180" height="60" style="fill:none;"/><g><path d="M7.326,38.184l-1.901,0l0,8.522c0,1.123 -0.251,1.949 -0.75,2.479c-0.502,0.541 -1.216,0.836 -1.954,0.811c-0.762,0.043 -1.503,-0.263 -2.007,-0.83c-0.477,-0.566 -0.714,-1.385 -0.714,-2.46l0,-20.407c0,-1.159 0.262,-1.997 0.786,-2.518c0.525,-0.519 1.372,-0.779 2.541,-0.779l8.821,0c1.044,-0.009 2.086,0.044 3.124,0.155c0.81,0.087 1.601,0.299 2.347,0.629c0.834,0.344 1.588,0.851 2.221,1.49c0.643,0.65 1.142,1.428 1.467,2.279c0.337,0.875 0.508,1.804 0.504,2.74c0,1.978 -0.563,3.557 -1.688,4.739c-1.125,1.182 -2.833,2.021 -5.122,2.516c1.048,0.577 1.983,1.338 2.758,2.245c0.872,0.984 1.658,2.039 2.347,3.157c0.61,0.964 1.149,1.975 1.612,3.02c0.289,0.581 0.484,1.209 0.572,1.852c-0.006,0.373 -0.123,0.733 -0.335,1.04c-0.23,0.348 -0.547,0.627 -0.921,0.811c-0.42,0.207 -0.884,0.31 -1.353,0.301c-0.54,0.024 -1.076,-0.118 -1.532,-0.406c-0.421,-0.289 -0.784,-0.654 -1.069,-1.075c-0.299,-0.433 -0.709,-1.073 -1.23,-1.92l-2.175,-3.583c-0.601,-1.063 -1.301,-2.068 -2.089,-3.003c-0.507,-0.608 -1.148,-1.091 -1.872,-1.413c-0.762,-0.28 -1.573,-0.413 -2.385,-0.394l-0.003,0.002Zm3.107,-11.144l-5.008,0l0,7.304l4.859,0c1.1,0.022 2.202,-0.09 3.277,-0.332c0.786,-0.159 1.502,-0.559 2.048,-1.14c0.5,-0.627 0.751,-1.417 0.705,-2.215c0.036,-1.407 -0.818,-2.687 -2.139,-3.204c-0.634,-0.275 -1.882,-0.413 -3.744,-0.413l0.002,0Zm28.274,20.148c-1.067,0.849 -2.245,1.551 -3.499,2.091c-1.203,0.48 -2.491,0.717 -3.789,0.698c-1.17,0.023 -2.327,-0.238 -3.372,-0.759c-0.92,-0.458 -1.693,-1.16 -2.234,-2.029c-0.518,-0.836 -0.791,-1.8 -0.786,-2.782c-0.029,-1.274 0.437,-2.509 1.299,-3.455c0.949,-0.999 2.197,-1.673 3.56,-1.92c0.318,-0.072 1.103,-0.234 2.356,-0.486c1.255,-0.251 2.327,-0.482 3.221,-0.69c0.897,-0.212 1.867,-0.467 2.914,-0.767c-0.061,-1.3 -0.325,-2.258 -0.795,-2.868c-0.47,-0.613 -1.442,-0.917 -2.914,-0.915c-0.984,-0.058 -1.968,0.121 -2.868,0.524c-0.67,0.381 -1.235,0.922 -1.64,1.575c-0.299,0.476 -0.62,0.938 -0.965,1.383c-0.189,0.226 -0.598,0.338 -1.23,0.334c-0.534,0.01 -1.052,-0.183 -1.45,-0.535c-0.401,-0.341 -0.627,-0.844 -0.611,-1.368c0.019,-0.922 0.348,-1.814 0.93,-2.531c0.766,-0.927 1.77,-1.627 2.906,-2.03c1.571,-0.579 3.24,-0.856 4.917,-0.811c2.185,0 3.908,0.255 5.172,0.765c1.171,0.437 2.125,1.31 2.658,2.435c0.571,1.4 0.836,2.906 0.774,4.415l0,2.949c0,0.809 -0.008,1.716 -0.024,2.719c0.009,0.984 0.167,1.963 0.467,2.901c0.226,0.629 0.383,1.282 0.467,1.945c-0.025,0.546 -0.296,1.051 -0.738,1.379c-0.448,0.406 -1.032,0.627 -1.64,0.626c-0.579,-0.031 -1.125,-0.288 -1.515,-0.714c-0.607,-0.628 -1.134,-1.325 -1.569,-2.079l-0.002,0Zm-0.328,-7.145c-1.042,0.349 -2.108,0.63 -3.187,0.839c-1.396,0.295 -2.362,0.511 -2.897,0.65c-0.565,0.155 -1.09,0.432 -1.534,0.811c-0.492,0.422 -0.762,1.048 -0.728,1.693c-0.007,0.73 0.307,1.426 0.86,1.908c0.618,0.54 1.422,0.823 2.245,0.787c0.949,0.01 1.885,-0.212 2.73,-0.642c0.756,-0.36 1.391,-0.93 1.826,-1.642c0.451,-0.747 0.675,-1.978 0.675,-3.689l0.01,-0.714l0,-0.001Zm14.475,-7.41l0,0.596c0.757,-1.042 1.737,-1.904 2.869,-2.524c1.112,-0.555 2.344,-0.834 3.589,-0.811c1.229,-0.021 2.443,0.272 3.524,0.851c1.009,0.541 1.82,1.383 2.319,2.407c0.328,0.608 0.545,1.268 0.639,1.952c0.108,0.887 0.157,1.785 0.146,2.678l0,9.197c0.064,0.803 -0.173,1.602 -0.667,2.24c-0.444,0.502 -1.092,0.782 -1.766,0.762c-0.693,0.032 -1.363,-0.248 -1.823,-0.762c-0.5,-0.631 -0.747,-1.423 -0.692,-2.224l0,-8.251c0,-1.623 -0.229,-2.869 -0.685,-3.737c-0.456,-0.868 -1.366,-1.301 -2.729,-1.295c-0.874,-0.005 -1.727,0.27 -2.429,0.788c-0.745,0.542 -1.306,1.296 -1.608,2.161c-0.243,0.736 -0.365,2.111 -0.365,4.124l0,6.192c0,1.001 -0.234,1.752 -0.704,2.253c-0.468,0.5 -1.132,0.774 -1.82,0.751c-0.675,0.022 -1.327,-0.259 -1.773,-0.763c-0.502,-0.632 -0.748,-1.424 -0.693,-2.225l0,-14.292c-0.058,-0.754 0.164,-1.503 0.623,-2.106c0.432,-0.473 1.056,-0.73 1.7,-0.699c0.417,-0.006 0.827,0.101 1.186,0.309c0.367,0.219 0.662,0.538 0.85,0.92c0.221,0.47 0.328,0.987 0.308,1.506l0.001,0.002Zm30.493,15.084l-4.404,-7.163l-2.706,2.533l0,3.923c0.058,0.805 -0.214,1.601 -0.752,2.207c-0.447,0.483 -1.075,0.759 -1.735,0.763c-0.693,0.036 -1.363,-0.245 -1.819,-0.763c-0.482,-0.646 -0.714,-1.442 -0.656,-2.244l0,-21.052c-0.058,-0.881 0.164,-1.758 0.64,-2.505c0.424,-0.575 1.116,-0.899 1.835,-0.858c0.697,-0.032 1.37,0.255 1.827,0.777c0.496,0.661 0.736,1.477 0.676,2.297l0,11.976l5.595,-5.838c0.489,-0.535 1.021,-1.032 1.589,-1.486c0.388,-0.274 0.855,-0.417 1.331,-0.405c0.577,-0.016 1.136,0.195 1.554,0.588c0.41,0.382 0.637,0.917 0.622,1.474c0,0.721 -0.675,1.686 -2.028,2.894l-2.647,2.406l5.114,7.958c0.376,0.588 0.65,1.039 0.82,1.347c0.153,0.268 0.237,0.569 0.245,0.878c0.039,0.677 -0.193,1.343 -0.646,1.852c-0.446,0.458 -1.067,0.705 -1.708,0.678c-0.517,0.034 -1.023,-0.141 -1.407,-0.487c-0.499,-0.54 -0.948,-1.126 -1.339,-1.748l-0.001,-0.002Zm30.833,-0.529c-1.068,0.849 -2.245,1.551 -3.5,2.091c-1.204,0.48 -2.493,0.717 -3.79,0.698c-1.167,0.022 -2.325,-0.239 -3.367,-0.759c-0.922,-0.457 -1.698,-1.159 -2.238,-2.029c-0.518,-0.836 -0.792,-1.8 -0.787,-2.782c-0.029,-1.274 0.437,-2.509 1.299,-3.455c0.949,-0.999 2.197,-1.673 3.56,-1.92c0.319,-0.072 1.103,-0.234 2.356,-0.486c1.255,-0.251 2.328,-0.482 3.221,-0.69c0.897,-0.212 1.867,-0.467 2.914,-0.767c-0.061,-1.3 -0.326,-2.258 -0.795,-2.868c-0.47,-0.613 -1.442,-0.917 -2.914,-0.915c-0.984,-0.058 -1.968,0.121 -2.867,0.524c-0.671,0.381 -1.235,0.922 -1.641,1.575c-0.299,0.476 -0.62,0.938 -0.965,1.383c-0.19,0.226 -0.598,0.338 -1.23,0.334c-0.521,0 -1.024,-0.191 -1.413,-0.535c-0.402,-0.341 -0.627,-0.844 -0.611,-1.368c0.019,-0.922 0.347,-1.814 0.93,-2.531c0.766,-0.927 1.77,-1.627 2.906,-2.03c1.571,-0.579 3.24,-0.856 4.917,-0.811c2.185,0 3.908,0.255 5.172,0.765c1.172,0.437 2.126,1.31 2.658,2.435c0.571,1.4 0.835,2.906 0.774,4.415l0,2.949c0,0.809 -0.02,1.716 -0.061,2.719c0.009,0.984 0.167,1.963 0.467,2.901c0.227,0.628 0.383,1.279 0.467,1.94c-0.02,0.545 -0.284,1.053 -0.721,1.384c-0.449,0.406 -1.032,0.627 -1.64,0.626c-0.579,-0.031 -1.125,-0.288 -1.515,-0.714c-0.613,-0.628 -1.145,-1.324 -1.586,-2.079l0,0Zm-0.328,-7.145c-1.042,0.349 -2.108,0.63 -3.188,0.839c-1.389,0.301 -2.359,0.521 -2.904,0.658c-0.567,0.154 -1.091,0.431 -1.534,0.811c-0.494,0.422 -0.763,1.047 -0.729,1.693c-0.007,0.73 0.309,1.428 0.862,1.908c0.617,0.541 1.422,0.823 2.245,0.788c0.948,0.009 1.885,-0.213 2.729,-0.641c0.762,-0.363 1.399,-0.939 1.835,-1.657c0.451,-0.746 0.675,-1.976 0.675,-3.688l0.01,-0.71l-0.001,-0.001Z" style="fill:#216393;"/><ellipse cx="94.086" cy="25.223" rx="2.668" ry="2.642" style="fill:#a93335;"/><path d="M99.154,36.041c-0.135,-0.746 -1.186,-5.859 -4.776,-6.136l-0.316,0c-4.099,0.033 -5.075,6.243 -5.075,6.243c-0.116,0.574 0.196,1.151 0.746,1.37c0.55,0.222 1.177,0.021 1.495,-0.473l0.411,-0.598l0,10.531c-0.058,0.805 0.185,1.602 0.683,2.24c0.444,0.514 1.1,0.801 1.782,0.779c0.689,0.015 1.349,-0.27 1.807,-0.778c0.519,-0.631 0.772,-1.434 0.714,-2.244l0,-10.398l0.319,0.475c0.33,0.515 0.994,0.708 1.553,0.453c0.558,-0.256 0.84,-0.881 0.659,-1.464l-0.003,0l0.001,0Z" style="fill:#216393;"/></g></svg>