<?xml version="1.0" encoding="UTF-8" standalone="no"?><!DOCTYPE svg PUBLIC "-//W3C//DTD SVG 1.1//EN" "http://www.w3.org/Graphics/SVG/1.1/DTD/svg11.dtd"><svg width="100%" height="100%" viewBox="0 0 180 60" version="1.1" xmlns="http://www.w3.org/2000/svg" xmlns:xlink="http://www.w3.org/1999/xlink" xml:space="preserve" xmlns:serif="http://www.serif.com/" style="fill-rule:evenodd;clip-rule:evenodd;stroke-linejoin:round;stroke-miterlimit:1.41421;"><rect id="umanick" x="0" y="0" width="180" height="60" style="fill:none;"/><clipPath id="_clip1"><rect x="0" y="0" width="180" height="60"/></clipPath><g clip-path="url(#_clip1)"><path d="M91.928,27.143c-1.545,0 -2.799,-1.184 -2.799,-2.652c0,-1.47 1.254,-2.617 2.799,-2.617c1.539,0 2.793,1.147 2.793,2.617c0,1.468 -1.254,2.652 -2.793,2.652m34.543,22.426l-4.879,-9.543l-0.073,0l0,9.543l-6.89,0l0,-28.167l6.89,0l0,16.902l0.073,0l4.267,-8.073l7.786,0l-5.059,8.934l5.561,10.404l-7.676,0Zm-19.712,0.431c-4.73,0 -8.861,-3.336 -8.861,-10.119c0,-6.781 4.131,-10.082 8.861,-10.082c2.48,0 4.022,0.503 5.312,1.328l-1.826,4.198c-0.612,-0.467 -1.545,-0.718 -2.55,-0.718c-2.226,0 -3.659,1.939 -3.659,5.202c0,3.267 1.579,5.242 3.659,5.242c1.005,0 1.938,-0.252 2.55,-0.719l1.826,4.34c-1.29,0.859 -2.832,1.328 -5.312,1.328m-17.294,-19.769l4.878,0l0,19.338l-4.878,0l0,-19.338Zm-8.625,19.338l0,-12.916c0,-2.261 -1.361,-3.66 -4.053,-3.66c-1.432,0 -2.763,0.251 -3.553,0.574l0,16.002l-3.908,0l0,-18.371c1.938,-0.789 4.411,-1.363 7.423,-1.363c5.419,0 8.042,2.368 8.042,6.459l0,13.275l-3.951,0Zm-20.063,-2.941c-0.611,0.286 -2.082,0.502 -3.339,0.502c-2.977,0 -4.556,-1.256 -4.556,-3.3c0,-3.447 3.946,-3.77 7.895,-3.983l0,6.781Zm-3.697,-16.793c-2.583,0 -5.203,0.683 -6.745,1.363l1.003,2.692c1.293,-0.609 3.517,-1.184 5.348,-1.184c2.474,0 4.091,0.861 4.091,3.299l0,1.222c-5.85,0.323 -11.592,1.293 -11.592,6.671c0,3.805 2.801,6.064 8.36,6.064c2.73,0 5.563,-0.607 6.963,-1.361l0,-12.199c0,-4.773 -2.801,-6.567 -7.428,-6.567m-14.98,19.734l0,-13.311c0,-2.513 -1.758,-3.983 -4.198,-3.983c-1.793,0 -3.263,0.646 -4.198,1.651l0,15.643l-2.978,0l0,-13.777c0,-2.189 -1.829,-3.517 -4.521,-3.517c-1.543,0 -2.869,0.287 -3.84,0.683l0,16.611l-3.014,0l0,-18.371c1.867,-0.789 4.163,-1.363 6.676,-1.363c3.012,0 5.095,1.005 6.136,2.224c1.183,-1.112 3.479,-2.224 6.313,-2.224c3.982,0 6.602,2.404 6.602,6.17l0,13.564l-2.978,0Zm-34.959,0.36c-4.556,0 -7.141,-2.118 -7.141,-6.602l0,-13.096l2.118,0l0,13.131c0,3.23 1.686,4.772 5.023,4.772c2.011,0 3.768,-0.396 4.629,-0.788l0,-17.115l2.118,0l0,18.37c-1.401,0.718 -3.982,1.328 -6.747,1.328" style="fill:#006778;fill-rule:nonzero;"/></g></svg>