<svg clip-rule="evenodd" fill-rule="evenodd" stroke-linejoin="round" stroke-miterlimit="2" viewBox="0 0 80 80" xmlns="http://www.w3.org/2000/svg"><g transform="matrix(1.06896 0 0 -1.06896 -255.582 107.321)"><path d="m239.33 95.036c0 2.96 2.46 5.361 5.495 5.361h63.376c3.036 0 5.496-2.401 5.496-5.361v-64.117c0-2.961-2.46-5.361-5.496-5.361h-63.376c-3.035 0-5.495 2.4-5.495 5.361z" fill="#fbb363" fill-rule="nonzero"/><g fill="#0d1a26"><path d="m261.873 37.749v33.794h-11.233v-33.794zm-5.617 38.408c3.917 0 6.356 2.595 6.356 5.838-.073 3.316-2.439 5.839-6.281 5.839-3.843 0-6.355-2.523-6.355-5.839 0-3.243 2.438-5.838 6.207-5.838z"/><path d="m268.088 37.749h11.233v18.872c0 1.01.072 2.019.369 2.741.812 2.018 2.66 4.108 5.763 4.108 4.065 0 5.691-3.099 5.691-7.642v-18.079h11.231v19.377c0 10.38-5.541 15.21-12.931 15.21-6.06 0-8.72-3.387-10.198-5.694h.075v4.901h-11.233c.148-3.171 0-33.794 0-33.794z"/></g></g></svg>