<?xml version="1.0" encoding="UTF-8" standalone="no"?><!DOCTYPE svg PUBLIC "-//W3C//DTD SVG 1.1//EN" "http://www.w3.org/Graphics/SVG/1.1/DTD/svg11.dtd"><svg width="100%" height="100%" viewBox="0 0 180 60" version="1.1" xmlns="http://www.w3.org/2000/svg" xmlns:xlink="http://www.w3.org/1999/xlink" xml:space="preserve" xmlns:serif="http://www.serif.com/" style="fill-rule:evenodd;clip-rule:evenodd;stroke-linejoin:round;stroke-miterlimit:1.41421;"><rect id="vetaminic" x="0" y="0" width="180" height="60" style="fill:none;"/><clipPath id="_clip1"><rect x="0" y="0" width="180" height="60"/></clipPath><g clip-path="url(#_clip1)"><g><path d="M158.892,42.89c0,-0.975 0.158,-1.896 0.474,-2.759c0.317,-0.864 0.774,-1.617 1.373,-2.258c0.598,-0.641 1.326,-1.151 2.181,-1.527c0.857,-0.376 1.829,-0.565 2.925,-0.565c0.719,0 1.377,0.065 1.978,0.192c0.597,0.13 1.18,0.313 1.745,0.553l-0.797,3.053c-0.359,-0.137 -0.752,-0.257 -1.18,-0.359c-0.428,-0.104 -0.906,-0.154 -1.437,-0.154c-1.13,0 -1.971,0.352 -2.528,1.054c-0.555,0.703 -0.834,1.625 -0.834,2.771c0,1.215 0.261,2.155 0.783,2.823c0.523,0.667 1.433,0.999 2.733,0.999c0.462,0 0.958,-0.043 1.49,-0.127c0.529,-0.085 1.016,-0.222 1.462,-0.411l0.54,3.13c-0.446,0.19 -1.001,0.351 -1.667,0.489c-0.669,0.138 -1.405,0.206 -2.209,0.206c-1.231,0 -2.292,-0.184 -3.184,-0.553c-0.888,-0.367 -1.62,-0.867 -2.193,-1.499c-0.571,-0.634 -0.992,-1.383 -1.258,-2.248c-0.266,-0.864 -0.396,-1.8 -0.396,-2.809l-0.001,-0.001Zm-2.952,6.75l-3.824,0l0,-13.5l3.824,0l0,13.5Zm0.36,-17.401c0,0.702 -0.227,1.254 -0.679,1.656c-0.454,0.402 -0.989,0.603 -1.606,0.603c-0.615,0 -1.152,-0.201 -1.604,-0.603c-0.454,-0.402 -0.679,-0.954 -0.679,-1.656c0,-0.702 0.226,-1.253 0.679,-1.655c0.452,-0.402 0.989,-0.603 1.604,-0.603c0.617,0 1.152,0.203 1.606,0.603c0.453,0.404 0.679,0.954 0.679,1.655l0,0Zm-19.3,4.363c0.651,-0.188 1.488,-0.362 2.515,-0.525c1.026,-0.162 2.104,-0.243 3.233,-0.243c1.146,0 2.1,0.149 2.862,0.449c0.761,0.3 1.364,0.724 1.808,1.271c0.446,0.549 0.762,1.198 0.949,1.95c0.189,0.753 0.283,1.591 0.283,2.514l0,7.623l-3.823,0l0,-7.159c0,-1.232 -0.164,-2.106 -0.488,-2.619c-0.325,-0.512 -0.933,-0.769 -1.823,-0.769c-0.273,0 -0.563,0.013 -0.873,0.039c-0.306,0.025 -0.58,0.054 -0.82,0.089l0,10.42l-3.824,0l0,-13.038l0.001,-0.002Zm-3.594,13.039l-3.824,0l0,-13.5l3.824,0l0,13.5Zm0.36,-17.401c0,0.702 -0.226,1.254 -0.679,1.656c-0.453,0.402 -0.988,0.603 -1.605,0.603c-0.617,0 -1.152,-0.201 -1.604,-0.603c-0.454,-0.402 -0.679,-0.954 -0.679,-1.656c0,-0.702 0.225,-1.252 0.679,-1.654c0.452,-0.402 0.987,-0.603 1.604,-0.603c0.617,0 1.152,0.202 1.605,0.603c0.453,0.403 0.679,0.954 0.679,1.654l0,0Zm-18.888,10.242c0,-1.232 -0.159,-2.106 -0.474,-2.619c-0.317,-0.512 -0.86,-0.769 -1.63,-0.769c-0.24,0 -0.488,0.013 -0.745,0.039l-0.745,0.089l0,10.42l-3.823,0l0,-13.038c0.324,-0.086 0.707,-0.175 1.142,-0.268c0.437,-0.095 0.897,-0.181 1.385,-0.258c0.487,-0.076 0.988,-0.135 1.502,-0.18c0.512,-0.043 1.017,-0.063 1.512,-0.063c0.977,0 1.766,0.125 2.375,0.373c0.606,0.247 1.107,0.543 1.5,0.885c0.548,-0.394 1.176,-0.702 1.887,-0.924c0.709,-0.222 1.362,-0.333 1.964,-0.333c1.078,0 1.964,0.15 2.657,0.45c0.692,0.299 1.246,0.723 1.654,1.27c0.411,0.549 0.693,1.199 0.848,1.95c0.152,0.753 0.23,1.591 0.23,2.515l0,7.622l-3.824,0l0,-7.159c0,-1.232 -0.156,-2.105 -0.474,-2.619c-0.317,-0.512 -0.86,-0.769 -1.63,-0.769c-0.206,0 -0.492,0.051 -0.861,0.153c-0.368,0.103 -0.671,0.232 -0.911,0.386c0.119,0.394 0.198,0.808 0.231,1.244c0.034,0.436 0.051,0.902 0.051,1.4l0,7.366l-3.824,0l0,-7.16l0.003,-0.003Zm-16.45,4.49c0.377,0 0.736,-0.009 1.077,-0.026c0.343,-0.016 0.616,-0.043 0.821,-0.077l0,-2.899c-0.153,-0.033 -0.385,-0.069 -0.692,-0.103c-0.309,-0.036 -0.59,-0.052 -0.847,-0.052c-0.359,0 -0.698,0.022 -1.014,0.064c-0.316,0.044 -0.595,0.125 -0.834,0.245c-0.239,0.119 -0.427,0.282 -0.563,0.486c-0.137,0.206 -0.208,0.462 -0.208,0.77c0,0.6 0.203,1.014 0.604,1.244c0.402,0.231 0.955,0.347 1.656,0.347l0,0.001Zm-0.308,-11.19c1.13,0 2.07,0.129 2.824,0.384c0.754,0.257 1.357,0.626 1.809,1.105c0.453,0.478 0.775,1.06 0.963,1.745c0.186,0.685 0.281,1.445 0.281,2.284l0,7.955c-0.548,0.119 -1.309,0.261 -2.283,0.424c-0.974,0.163 -2.155,0.243 -3.541,0.243c-0.873,0 -1.665,-0.076 -2.375,-0.231c-0.71,-0.153 -1.322,-0.406 -1.835,-0.757c-0.513,-0.351 -0.908,-0.809 -1.181,-1.373c-0.274,-0.565 -0.412,-1.258 -0.412,-2.08c0,-0.787 0.159,-1.454 0.476,-2.001c0.316,-0.547 0.74,-0.983 1.269,-1.309c0.531,-0.324 1.139,-0.561 1.823,-0.706c0.684,-0.146 1.394,-0.219 2.13,-0.219c0.495,0 0.936,0.023 1.323,0.064c0.383,0.043 0.696,0.099 0.935,0.167l0,-0.36c0,-0.65 -0.197,-1.172 -0.588,-1.565c-0.396,-0.393 -1.079,-0.591 -2.054,-0.591c-0.652,0 -1.292,0.047 -1.926,0.142c-0.632,0.094 -1.18,0.226 -1.643,0.398l-0.486,-3.08c0.222,-0.068 0.499,-0.141 0.833,-0.217c0.334,-0.079 0.698,-0.147 1.091,-0.206c0.393,-0.059 0.808,-0.111 1.244,-0.153c0.438,-0.043 0.877,-0.065 1.322,-0.065l0.001,0.002Zm-15.859,-3.002l3.823,-0.617l0,3.978l4.594,0l0,3.184l-4.594,0l0,4.747c0,0.804 0.142,1.447 0.424,1.926c0.282,0.478 0.85,0.716 1.707,0.716c0.409,0 0.834,-0.038 1.27,-0.114c0.437,-0.076 0.834,-0.184 1.193,-0.32l0.54,2.976c-0.461,0.189 -0.975,0.351 -1.54,0.488c-0.565,0.137 -1.257,0.206 -2.079,0.206c-1.044,0 -1.909,-0.142 -2.592,-0.424c-0.685,-0.281 -1.233,-0.675 -1.644,-1.18c-0.41,-0.504 -0.698,-1.115 -0.86,-1.834c-0.163,-0.719 -0.244,-1.514 -0.244,-2.386l0,-11.344l0.002,-0.002Zm-6.519,8.751c-0.017,-0.325 -0.073,-0.643 -0.167,-0.949c-0.093,-0.308 -0.24,-0.582 -0.436,-0.821c-0.198,-0.239 -0.444,-0.435 -0.744,-0.59c-0.302,-0.154 -0.672,-0.231 -1.118,-0.231c-0.428,0 -0.796,0.072 -1.103,0.218c-0.307,0.146 -0.566,0.338 -0.77,0.577c-0.206,0.239 -0.365,0.519 -0.475,0.834c-0.111,0.317 -0.192,0.639 -0.243,0.963l5.055,0l0.001,-0.001Zm-8.982,1.462c0,-1.196 0.184,-2.245 0.551,-3.144c0.367,-0.897 0.85,-1.645 1.451,-2.246c0.598,-0.597 1.287,-1.051 2.065,-1.358c0.778,-0.309 1.578,-0.464 2.399,-0.464c1.916,0 3.431,0.585 4.543,1.758c1.112,1.171 1.668,2.895 1.668,5.171c0,0.223 -0.009,0.467 -0.025,0.731l-0.051,0.706l-8.674,0c0.085,0.788 0.453,1.411 1.103,1.874c0.649,0.463 1.521,0.692 2.617,0.692c0.702,0 1.39,-0.062 2.066,-0.19c0.676,-0.129 1.229,-0.287 1.656,-0.475l0.513,3.104c-0.205,0.104 -0.479,0.206 -0.821,0.309c-0.34,0.103 -0.722,0.191 -1.141,0.269c-0.42,0.077 -0.869,0.141 -1.348,0.192c-0.479,0.053 -0.959,0.078 -1.438,0.078c-1.214,0 -2.271,-0.181 -3.168,-0.539c-0.9,-0.359 -1.644,-0.851 -2.233,-1.476c-0.591,-0.624 -1.028,-1.365 -1.31,-2.22c-0.284,-0.855 -0.423,-1.78 -0.423,-2.772l0,0Zm-9.426,6.648c-0.876,-1.711 -1.766,-3.711 -2.666,-6.005c-0.902,-2.293 -1.756,-4.791 -2.563,-7.494l4.054,0c0.172,0.668 0.374,1.391 0.607,2.168c0.231,0.78 0.472,1.567 0.721,2.362c0.25,0.796 0.498,1.569 0.747,2.321c0.251,0.754 0.495,1.439 0.736,2.053c0.223,-0.614 0.465,-1.299 0.721,-2.053c0.257,-0.753 0.511,-1.525 0.76,-2.321c0.248,-0.797 0.49,-1.582 0.721,-2.362c0.231,-0.777 0.435,-1.5 0.607,-2.168l3.954,0c-0.806,2.703 -1.66,5.202 -2.561,7.494c-0.9,2.294 -1.789,4.295 -2.665,6.005l-3.173,0l0,0Z" style="fill:#005b98;fill-rule:nonzero;"/><g><path d="M37.154,34.742c-0.466,-5.537 -5.099,-9.887 -10.751,-9.887c-5.961,0 -10.792,4.837 -10.792,10.805l0,14.282l20.423,0c4.214,0 7.633,-3.421 7.633,-7.641c0,-3.838 -2.829,-7.016 -6.513,-7.559m-37.154,7.476c0,4.266 3.455,7.724 7.717,7.724l6.343,0l0,-15.45l-6.343,0c-4.261,0 -7.717,3.458 -7.717,7.725" style="fill:#005b98;fill-rule:nonzero;"/><path d="M36.034,48.248l-18.731,0l0,-12.589c0,-5.025 4.083,-9.111 9.1,-9.111c2.296,0 4.487,0.859 6.172,2.417c1.615,1.495 2.625,3.502 2.866,5.676c-0.97,-0.023 -1.622,0.038 -2.055,0.136c-0.414,0.095 -0.698,0.486 -0.638,0.907c0.048,0.326 0.301,0.611 0.603,0.676l0.275,0.011c1.305,-0.188 2.618,-0.126 3.899,0.173c2.576,0.671 4.45,3.041 4.45,5.756c0,3.28 -2.665,5.948 -5.94,5.948m-29.788,-10.629l0,0.001c-1.337,0.404 -2.427,1.38 -2.99,2.64l-0.043,0.098l0,0.001c-0.147,0.277 -0.437,0.466 -0.771,0.466c-0.482,0 -0.872,-0.391 -0.872,-0.873c0,-0.125 0.026,-0.245 0.073,-0.351c0.759,-1.736 2.245,-3.083 4.074,-3.644l0.105,-0.03l0.18,-0.02c0.482,0 0.872,0.391 0.872,0.874c0,0.396 -0.264,0.731 -0.626,0.838" style="fill:#fff;fill-rule:nonzero;"/></g></g></g></svg>