<svg clip-rule="evenodd" fill-rule="evenodd" stroke-linejoin="round" stroke-miterlimit="2" viewBox="0 0 180 60" xmlns="http://www.w3.org/2000/svg"><path d="m0 0h180v60h-180z" fill="none"/><path d="m136.531 33.988.978-2.201s-1.957-1.713-6.115-1.713-6.36 1.957-6.36 4.647c0 2.691.733 4.892 5.871 6.605 5.137 1.712 4.403 3.914 4.158 4.403-.244.489-.979 1.956-3.913 1.956-2.936 0-6.116-2.201-6.116-2.201l-1.223 2.201s2.936 2.447 7.583 2.447c4.648 0 6.604-2.936 6.604-5.137 0-2.202-1.223-4.403-5.626-6.115-4.402-1.712-5.381-3.179-4.158-5.137 1.223-1.956 3.914-1.467 5.381-1.223 1.468.245 2.936 1.468 2.936 1.468zm-27.397 6.36h11.988s.733-10.519-6.85-10.519-8.072 7.583-8.072 9.54 0 10.274 6.848 10.518c6.849.245 8.317-1.956 8.317-1.956l-1.223-2.447s-1.957 2.201-5.626 2.201-5.626-2.445-5.382-7.337zm9.052-2.324c-.001-2.769-.98-5.748-4.281-5.748-3.303 0-4.771 2.979-4.771 5.748zm-15.656 11.619c1.486 0 2.69-1.205 2.69-2.691s-1.204-2.69-2.69-2.69-2.691 1.204-2.691 2.69 1.205 2.691 2.691 2.691zm-11.985.599c5.87 0 8.561-4.49 8.561-10.029s-2.202-10.029-8.561-10.029c-6.361 0-8.562 4.49-8.562 10.029s2.69 10.029 8.562 10.029zm0-3.425c3.424 0 3.913-2.957 3.913-6.604 0-3.648-.489-6.605-3.913-6.605-3.425 0-3.914 2.957-3.914 6.605 0 3.647.489 6.604 3.914 6.604zm-8.562-15.276-1.223 3.425s-2.69-1.467-5.381-1.467c-1.957 0-3.67 2.202-3.425 6.114.244 3.914.244 6.85 3.425 6.85 3.669.244 5.381-1.712 5.381-1.712l1.468 3.424s-2.202 1.957-5.871 1.957-9.051-1.467-9.051-10.273c0-8.807 6.85-10.03 9.051-9.785 3.424 0 5.626 1.467 5.626 1.467zm-19.079-2.934c1.486 0 2.691-1.205 2.691-2.691 0-1.487-1.205-2.691-2.691-2.691-1.487 0-2.691 1.204-2.691 2.691 0 1.486 1.204 2.691 2.691 2.691zm-2.202 5.149h-7.338v15.887h-4.403v-15.887h-1.713v-3.67h1.713v-2.304s.245-8.352 9.295-6.142c.013.004-.734 3.931-.734 3.931-3.913-1.719-4.158 2.211-4.158 2.211v2.304h11.74v19.325h-4.402zm-29.598-1.236 1.713 2.935s2.446-2.69 5.626-1.956c3.18.733 2.202 3.669 2.202 3.669s-9.541.489-10.274 6.115c-.734 5.626 2.691 6.849 5.87 6.849 3.18 0 5.382-2.447 5.382-2.447l.489 1.958h3.914s-1.223-.734-1.223-3.425v-11.008s0-4.402-5.382-5.136c-5.381-.734-8.317 2.446-8.317 2.446zm9.541 7.583v4.898s-4.649 3.419-5.872.483c-1.222-4.158 5.872-5.381 5.872-5.381zm-21.771-9.785.978 3.425v15.9h4.158v-12.722s1.224-2.933 5.382-2.933l.245-3.67c-3.18-.489-6.116 2.691-6.116 2.691l-.733-2.691zm-1.712 0s-1.224 1.958-1.224 4.159v16.389s-.733 6.849-7.093 7.338-8.072-1.956-8.072-1.956l1.712-3.181s2.202 1.957 5.137 1.957 4.158-2.446 4.158-6.115c0 0-1.467 1.223-3.424 1.223s-7.827-.978-8.316-8.806c-.491-7.827 3.668-11.252 7.582-11.252 3.913 0 4.893 2.446 4.893 2.446l.733-2.202zm-5.382 4.892v10.522s-1.223.975-2.935.975c-1.713 0-4.158-1.223-4.158-5.87s.489-7.338 3.424-7.338 3.669 1.711 3.669 1.711z" fill="#fff"/></svg>