<svg clip-rule="evenodd" fill-rule="evenodd" stroke-linejoin="round" stroke-miterlimit="2" viewBox="0 0 180 64" xmlns="http://www.w3.org/2000/svg"><g fill="#e7235c" transform="matrix(1 0 0 1.000000625 0 16)"><path d="m53.651 14.71h-.011c0-.03.01-.06.01-.1 0-.54-.43-.97-.961-.97h-1.93c-.529 0-.96.43-.96.97 0 .04.011.07.021.1h-.02v15.49c0 .53.431.97.96.97h1.93c.531 0 .961-.439.961-.97z" fill-rule="nonzero"/><path d="m53.65 4.91v-3.97c-.02-.52-.44-.94-.961-.94h-1.93c-.52 0-.93.42-.949.94h-.01v3.97h.011c.02.52.43.93.949.93h1.93c.52 0 .94-.41.96-.93z" fill-rule="nonzero"/><path d="m180 24.35v-23.38c0-.53-.43-.97-.96-.97h-1.931c-.539 0-.969.44-.969.97v23.38c0 .541.43.98.969.98h1.931c.53 0 .96-.439.96-.98zm-8.46-4.23c.021-.05.03-.1.03-.15 0-.27-.211-.49-.48-.49l-.029.01-.011-.01h-2.89l-.01.01-.03-.01c-.38 0-.7.23-.86.56l-.02.01-4.4 10.45.01.01c-.02.061-.029.11-.029.17 0 .26.199.471.459.49h2.91l.021-.01.06.01c.41 0 .75-.26.891-.62l4.359-10.37.021-.04.01-.02zm-10.13-1.12c0-.04-.01-.08-.02-.12l.02-.02-7.65-18.2-.01-.01c-.141-.38-.49-.65-.9-.65h-2.99c-.26.02-.469.23-.469.49 0 .09.029.17.08.24l-.011.02 7.569 18.01.041.03c.119.4.47.69.91.69h2.949c.26 0 .481-.22.481-.48zm-12.25 7.221h-.02v4.02h.01c.02.51.439.93.959.93h1.931c.51 0 .931-.42.95-.93h.01v-4.02h-.02c-.041-.5-.44-.891-.94-.891h-1.931c-.509 0-.909.391-.949.891z"/><g fill-rule="nonzero"><path d="m28.27 30.27v-5.92c0-.539-.43-.97-.959-.97h-1.931c-.53 0-.96.431-.96.97v5.92h.01c.041.5.45.9.95.9h1.931c.5 0 .91-.4.949-.9z"/><path d="m44.67 10.71c0-5.91-4.75-10.71-10.609-10.71h-8.681c-.53 0-.96.44-.96.97v1.95c0 .54.43.98.96.98h8.681c3.729 0 6.75 3.05 6.75 6.81 0 3.61-2.761 6.56-6.271 6.81-.011 0-.021.01-.03.02-.25.02-.449.22-.449.48v2.4c.02.53.439.95.959.95l.051-.011c.02.011.029.021.05.021 5.359-.54 9.549-5.11 9.549-10.67z"/><path d="m144.1 30.49.01-.01-4.4-12.2-.04-.03c-.109-.41-.47-.72-.91-.72h-15.831l-.01.01c-.42.01-.76.29-.88.67l-.021.02-4.42 12.25.01.01c-.029.06-.039.119-.039.189 0 .271.209.49.479.49h2.931l.01-.01.029.01c.42 0 .771-.279.9-.66l.01-.01 3.271-9.07h11.3l3.27 9.061.021.01c.12.391.47.67.899.67.031 0 .051-.01.07-.01l.03.01h2.81l.01-.01.051.01c.27 0 .48-.22.48-.49.001-.071-.01-.13-.04-.19z"/><path d="m132.79 5.36-.011-4.42c-.019-.52-.429-.94-.949-.94h-1.96c-.521 0-.931.42-.96.94l.01 4.42c0 .27.21.48.48.48h2.91c.27 0 .48-.21.48-.48z"/></g><path d="m19.29 30.2v-1.95c0-.529-.42-.95-.93-.971v-.01h-14.02c-.27 0-.48-.209-.48-.479v-8.77c0-.27.21-.49.48-.49h6.38v-.02c.48-.06.85-.45.85-.95v-1.95c0-.5-.37-.89-.85-.95v-.02h-9.79c-.52.03-.93.45-.93.97 0 .04.02.07.02.1h-.02v15.601h.02c.06.469.43.83.91.85v.01h17.43v-.01c.51-.02.93-.44.93-.961zm-11.58-27.28v-1.95c0-.53-.43-.97-.96-.97l-.04.01v-.01h-5.82v.02c-.5.04-.89.44-.89.95v1.95c0 .51.39.92.89.96v.02h5.82v-.01l.04.01c.53 0 .96-.44.96-.98z"/><path d="m85.779 30.16h.011v-11.69h-.011c-.02-.52-.439-.94-.959-.94h-7.711c-.539 0-.969.44-.969.98v1.95c0 .53.43.97.969.97h4.341c.26 0 .479.221.479.49v8.24h.01l-.01.04c0 .53.43.97.961.97h1.93c.529 0 .97-.439.97-.97zm-9.539-26.61v-2.54c0-.46-.33-.83-.75-.93-.02-.01-.04-.02-.051-.02h-.08c-.029-.01-.06-.02-.08-.02l-.049.01c-.339-.03-.669-.05-1.02-.05-8.521 0-15.42 6.98-15.42 15.59 0 .3.01.6.03.9l-.01.07c0 .54.43.97.959.97h2.491c.24 0 .44-.19.471-.42 0-.02.02-.03.02-.04-.07-.48-.109-.98-.109-1.48 0-6.46 5.18-11.69 11.569-11.69.5 0 .99.04 1.47.11l.019-.01.06.01c.26 0 .461-.2.48-.46z"/><path d="m112.29 30.471-6.11-10.701c2.35-1.5 4.08-3.88 4.711-6.71.01-.03.02-.07.029-.11.01-.06.04-.12.051-.19l-.011-.04.011-.06c0-.53-.431-.97-.961-.97l-.039.01v-.01h-1.99v.01c-.381.03-.701.27-.83.62-.03.03-.051.06-.061.09-.68 2.7-2.96 4.76-5.76 5.08-.25.03-.439.23-.439.48 0 .11.039.2.09.28v.01l.039.09 1.631 2.83 5.41 9.48.029.01c.16.29.46.5.82.5.029 0 .05-.01.07-.01l.029.01h2.83c.27 0 .48-.22.48-.49 0-.07-.01-.13-.041-.189zm-15.59-27.551v-1.95c0-.49-.37-.89-.851-.95v-.02h-4.049v.02c-.46.03-.829.4-.87.88h-.01v9.85c.03.52.439.94.96.94h1.931c.52 0 .93-.42.959-.94v-6.39c0-.26.221-.48.49-.48l.59-.01c.48-.06.85-.45.85-.95z"/></g></svg>