<?xml version="1.0" encoding="UTF-8" standalone="no"?><!DOCTYPE svg PUBLIC "-//W3C//DTD SVG 1.1//EN" "http://www.w3.org/Graphics/SVG/1.1/DTD/svg11.dtd"><svg width="100%" height="100%" viewBox="0 0 180 60" version="1.1" xmlns="http://www.w3.org/2000/svg" xmlns:xlink="http://www.w3.org/1999/xlink" xml:space="preserve" xmlns:serif="http://www.serif.com/" style="fill-rule:evenodd;clip-rule:evenodd;stroke-linejoin:round;stroke-miterlimit:1.41421;"><rect id="aureka" x="0" y="0" width="180" height="60" style="fill:none;"/><g id="aureka1" serif:id="aureka"><path d="M13.473,43.668c0,-1.068 -0.311,-1.801 -0.931,-2.194c-0.621,-0.393 -1.766,-0.591 -3.43,-0.591c-1.694,0 -2.817,0.184 -3.367,0.549c-0.551,0.366 -0.825,1.097 -0.825,2.195c0,1.21 0.274,2.01 0.825,2.404c0.55,0.395 1.686,0.592 3.409,0.592c1.666,0 2.802,-0.212 3.409,-0.633c0.607,-0.422 0.91,-1.197 0.91,-2.323l0,0.001Zm4.744,6.079l-4.785,0l0.212,-2.702l-0.128,0c-0.507,1.126 -1.207,1.899 -2.095,2.323c-0.89,0.421 -2.253,0.632 -4.088,0.632c-2.682,0 -4.568,-0.45 -5.654,-1.351c-1.088,-0.899 -1.63,-2.462 -1.63,-4.686c0,-2.278 0.55,-3.888 1.65,-4.832c1.101,-0.942 2.979,-1.413 5.633,-1.413c1.921,0 3.304,0.161 4.151,0.485c0.845,0.323 1.467,0.922 1.863,1.794l0.084,0l0,-3.209c0,-1.546 -0.269,-2.581 -0.805,-3.101c-0.536,-0.52 -1.595,-0.781 -3.175,-0.781c-1.554,0 -2.557,0.176 -3.008,0.527c-0.452,0.353 -0.706,1.12 -0.763,2.301l-4.827,0c0.029,-2.42 0.593,-4.016 1.693,-4.791c1.102,-0.773 3.347,-1.16 6.734,-1.16c3.444,0 5.796,0.5 7.051,1.497c1.257,1 1.886,2.864 1.886,5.592l0,12.875l0.001,0Zm22.277,0.001l-4.787,0l0.254,-3.377l-0.084,-0.043c-0.931,2.448 -3.035,3.672 -6.311,3.672c-2.314,0 -4.008,-0.534 -5.082,-1.606c-1.072,-1.067 -1.608,-2.77 -1.608,-5.106l0,-13.252l4.786,0l0,12.113c0,1.604 0.225,2.673 0.677,3.207c0.452,0.535 1.37,0.801 2.754,0.801c1.805,0 3.028,-0.372 3.662,-1.119c0.637,-0.744 0.954,-2.157 0.954,-4.24l0,-10.763l4.786,0l0,19.711l-0.001,0.002Zm20.073,-12.072l-4.491,0c0.029,-0.31 0.043,-0.661 0.043,-1.055c0,-1.21 -0.17,-2.033 -0.508,-2.47c-0.338,-0.435 -0.989,-0.654 -1.949,-0.654c-1.27,0 -2.167,0.343 -2.69,1.034c-0.522,0.689 -0.782,1.892 -0.782,3.609l0,11.607l-4.786,0l0,-19.711l4.786,0l-0.297,2.742l0.086,0.043c0.648,-1.153 1.368,-1.956 2.159,-2.406c0.79,-0.45 1.864,-0.676 3.218,-0.676c1.891,0 3.232,0.5 4.024,1.5c0.789,0.997 1.186,2.665 1.186,5l0,1.435l0.001,0.002Zm16.006,0.126l0,-0.759c-0.028,-1.577 -0.31,-2.589 -0.847,-3.039c-0.537,-0.45 -1.709,-0.676 -3.514,-0.676c-1.809,0 -2.958,0.268 -3.452,0.802c-0.494,0.535 -0.769,1.758 -0.827,3.672l8.64,0Zm4.702,6.247c0,2.194 -0.643,3.734 -1.927,4.622c-1.286,0.886 -3.508,1.329 -6.671,1.329c-3.924,0 -6.508,-0.655 -7.75,-1.963c-1.242,-1.309 -1.863,-4.017 -1.863,-8.125c0,-4.024 0.606,-6.717 1.822,-8.083c1.213,-1.364 3.613,-2.047 7.199,-2.047c3.698,0 6.155,0.62 7.369,1.857c1.212,1.239 1.821,3.743 1.821,7.512l0,1.603l-13.384,0l0,0.76c0,1.998 0.291,3.322 0.869,3.968c0.578,0.648 1.784,0.971 3.621,0.971c1.722,0 2.837,-0.184 3.345,-0.548c0.51,-0.367 0.777,-1.183 0.805,-2.449l4.744,0l0,0.593Zm22.234,5.699l-5.888,0l-6.437,-8.738l-1.143,0l0,8.738l-4.786,0l0,-28.153l4.786,0l0,16.124l1.227,0l5.337,-7.682l5.505,0l-6.903,9.285l8.301,10.426l0.001,0Zm14.738,-6.08c0,-1.068 -0.311,-1.801 -0.932,-2.194c-0.622,-0.393 -1.765,-0.591 -3.432,-0.591c-1.694,0 -2.817,0.184 -3.367,0.549c-0.55,0.366 -0.825,1.097 -0.825,2.195c0,1.21 0.275,2.01 0.825,2.404c0.55,0.395 1.688,0.592 3.41,0.592c1.665,0 2.803,-0.212 3.41,-0.633c0.605,-0.422 0.91,-1.197 0.91,-2.323l0.001,0.001Zm4.742,6.079l-4.786,0l0.214,-2.702l-0.128,0c-0.51,1.126 -1.208,1.899 -2.098,2.323c-0.89,0.421 -2.251,0.632 -4.086,0.632c-2.684,0 -4.567,-0.45 -5.654,-1.351c-1.087,-0.899 -1.631,-2.462 -1.631,-4.686c0,-2.278 0.551,-3.888 1.652,-4.832c1.101,-0.942 2.978,-1.413 5.633,-1.413c1.919,0 3.302,0.161 4.149,0.485c0.847,0.323 1.469,0.922 1.864,1.794l0.084,0l0,-3.209c0,-1.546 -0.267,-2.581 -0.804,-3.101c-0.537,-0.52 -1.596,-0.781 -3.177,-0.781c-1.553,0 -2.554,0.176 -3.006,0.527c-0.452,0.353 -0.707,1.12 -0.763,2.301l-4.827,0c0.027,-2.42 0.592,-4.016 1.693,-4.791c1.101,-0.773 3.346,-1.16 6.734,-1.16c3.445,0 5.794,0.5 7.052,1.497c1.256,1 1.884,2.864 1.884,5.592l0,12.875l0.001,0Z" style="fill:#333;fill-rule:nonzero;"/></g></svg>