<svg height="60" viewBox="0 0 180 60" width="180" xmlns="http://www.w3.org/2000/svg" xmlns:xlink="http://www.w3.org/1999/xlink"><linearGradient id="a"><stop offset="0" stop-color="#9459f0"/><stop offset="1" stop-color="#20e6ce"/></linearGradient><linearGradient id="b" x1="0%" x2="99.694446%" xlink:href="#a" y1="100%" y2=".603372%"/><linearGradient id="c" x1="0%" x2="150.694717%" xlink:href="#a" y1="100%" y2="-50.693817%"/><g fill="none" fill-rule="evenodd"><g fill="#242b42"><path d="m43.4638819 37.9798267h2.5864621v1.1516997h.0471175c.6583291-.8130263 1.9518233-1.490373 3.3624533-1.490373 2.7275514 0 4.4443136 1.6486659 4.4443136 4.4716447v7.8365534h-2.6572699v-7.1592068c0-1.7614693-.6583291-2.7777522-2.4216824-2.7777522-1.6462176 0-2.6806971.9710563-2.6806971 2.5069188v7.4300402h-2.6806971z"/><path d="m56.256945 37.934022h2.646741v11.868554h-2.646741z"/><path d="m61.2564034 37.9798267h2.5867252v1.1516997h.0468543c.6583291-.8130263 1.9518234-1.490373 3.3627166-1.490373 2.7275513 0 4.4440503 1.6486659 4.4440503 4.4716447v7.8365534h-2.6572699v-7.1592068c0-1.7614693-.6583291-2.7777522-2.4216824-2.7777522-1.6462175 0-2.6806971.9710563-2.6806971 2.5069188v7.4300402h-2.680697z"/><path d="m83.9383541 48.0894356c-.9894678 1.2019221-2.4748541 2.1527317-4.7354419 2.1527317-3.4056224 0-5.8886365-2.4304018-5.8886365-6.300691 0-3.8702891 2.4830141-6.3006909 5.7701846-6.3006909 3.2634802 0 5.6993768 2.3851752 5.6993768 6.3006909v.7651703h-8.7499068c.0708078 1.9350132 1.1350319 3.2626231 3.1216012 3.2626231 1.4588003 0 2.3005982-.7046929 2.8591645-1.3986051zm-1.7796733-5.318065c-.094235-1.5976546-1.0642241-2.8576876-3.0742205-2.8576876-1.9391884 0-2.9323414 1.4851141-3.0268397 2.8576876z"/><path d="m87.2600073 40.2252721h-1.8878593v-2.1816557h1.9586672v-2.893711h2.5488207v2.893711h2.2353181l.9033928 2.1816557h-3.1152838v5.9564957c0 1.2242725.2598044 1.758314 1.6285814 1.758314h.9913104v2.4488079h-1.203734c-3.138711 0-4.0592135-1.3357612-4.0592135-3.9402326z"/><path d="m99.6250648 52.8799287 6.1863452-14.9458005h-2.746503l-3.2358418 8.2107242h-.0465911l-3.2355782-8.2107242h-2.7933579l4.7951943 11.3826312-1.4806482 3.5631693z"/><path d="m58.9036863 35.0034913c0 .728358-.5925225 1.3186698-1.3232388 1.3186698-.7309796 0-1.3235021-.5903118-1.3235021-1.3186698 0-.7283579.5925225-1.3186697 1.3235021-1.3186697.7307163 0 1.3232388.5903118 1.3232388 1.3186697z"/><path d="m113.751896 37.9798267h2.586462v1.1516997h.047118c.658329-.8130263 1.951823-1.490373 3.362453-1.490373 2.727551 0 4.444314 1.6486659 4.444314 4.4716447v7.8365534h-2.65727v-7.1592068c0-1.7614693-.658329-2.7777522-2.421683-2.7777522-1.646217 0-2.680697.9710563-2.680697 2.5069188v7.4300402h-2.680697z"/><path d="m126.54496 37.934022h2.646741v11.868554h-2.646741z"/><path d="m131.544418 37.9798267h2.587778v1.1516997h.044748c.658066-.8130263 1.95314-1.490373 3.364033-1.490373 2.727025 0 4.443261 1.6486659 4.443261 4.4716447v7.8365534h-2.655954v-7.1592068c0-1.7614693-.658066-2.7777522-2.421683-2.7777522-1.647797 0-2.682276.9710563-2.682276 2.5069188v7.4300402h-2.679907z"/><path d="m154.113707 48.0775505c-.989731 1.2019221-2.474327 2.1527316-4.735441 2.1527316-3.406149 0-5.888374-2.4304017-5.888374-6.3006909 0-3.8705521 2.482225-6.3006909 5.769922-6.3006909 3.264006 0 5.69885 2.3851752 5.69885 6.3006909v.7649074h-8.749644c.071071 1.935276 1.134506 3.2628859 3.121865 3.2628859 1.458274 0 2.300598-.7049558 2.858638-1.398868zm-1.77941-5.3180651c-.094761-1.5976545-1.063434-2.8579504-3.074483-2.8579504-1.939978 0-2.932342 1.485114-3.027103 2.8579504z"/><path d="m129.191701 35.0034913c0 .728358-.592523 1.3186698-1.323239 1.3186698-.73098 0-1.323502-.5903118-1.323502-1.3186698 0-.7283579.592522-1.3186697 1.323502-1.3186697.730716 0 1.323239.5903118 1.323239 1.3186697z"/></g><path d="m31.8819137 59.8479465-31.85032653-31.8163931h31.85032653zm-2.5067581-29.3123447h-23.29175021l23.29175021 23.2670236z" fill="url(#b)"/><path d="m21.1672285 59.8479465h-21.13564133v-21.1131867zm-18.62297641-2.5100751h12.55700711l-12.55700711-12.5434338z" fill="url(#c)"/></g></svg>