<?xml version="1.0" encoding="UTF-8" standalone="no"?><!DOCTYPE svg PUBLIC "-//W3C//DTD SVG 1.1//EN" "http://www.w3.org/Graphics/SVG/1.1/DTD/svg11.dtd"><svg width="100%" height="100%" viewBox="0 0 180 60" version="1.1" xmlns="http://www.w3.org/2000/svg" xmlns:xlink="http://www.w3.org/1999/xlink" xml:space="preserve" xmlns:serif="http://www.serif.com/" style="fill-rule:evenodd;clip-rule:evenodd;stroke-linejoin:round;stroke-miterlimit:1.41421;"><rect id="grafico" x="0" y="0" width="180" height="60" style="fill:none;"/><path d="M136.531,33.988l0.978,-2.201c0,0 -1.957,-1.713 -6.115,-1.713c-4.158,0 -6.36,1.957 -6.36,4.647c0,2.691 0.733,4.892 5.871,6.605c5.137,1.712 4.403,3.914 4.158,4.403c-0.244,0.489 -0.979,1.956 -3.913,1.956c-2.936,0 -6.116,-2.201 -6.116,-2.201l-1.223,2.201c0,0 2.936,2.447 7.583,2.447c4.648,0 6.604,-2.936 6.604,-5.137c0,-2.202 -1.223,-4.403 -5.626,-6.115c-4.402,-1.712 -5.381,-3.179 -4.158,-5.137c1.223,-1.956 3.914,-1.467 5.381,-1.223c1.468,0.245 2.936,1.468 2.936,1.468l0,0Zm-27.397,6.36l11.988,0c0,0 0.733,-10.519 -6.85,-10.519c-7.583,0 -8.072,7.583 -8.072,9.54c0,1.957 0,10.274 6.848,10.518c6.849,0.245 8.317,-1.956 8.317,-1.956l-1.223,-2.447c0,0 -1.957,2.201 -5.626,2.201c-3.669,0 -5.626,-2.445 -5.382,-7.337l0,0Zm9.052,-2.324c-0.001,-2.769 -0.98,-5.748 -4.281,-5.748c-3.303,0 -4.771,2.979 -4.771,5.748l9.052,0Zm-15.656,11.619c1.486,0 2.69,-1.205 2.69,-2.691c0,-1.486 -1.204,-2.69 -2.69,-2.69c-1.486,0 -2.691,1.204 -2.691,2.69c0,1.486 1.205,2.691 2.691,2.691Zm-11.985,0.599c5.87,0 8.561,-4.49 8.561,-10.029c0,-5.539 -2.202,-10.029 -8.561,-10.029c-6.361,0 -8.562,4.49 -8.562,10.029c0,5.539 2.69,10.029 8.562,10.029l0,0Zm0,-3.425c3.424,0 3.913,-2.957 3.913,-6.604c0,-3.648 -0.489,-6.605 -3.913,-6.605c-3.425,0 -3.914,2.957 -3.914,6.605c0,3.647 0.489,6.604 3.914,6.604Zm-8.562,-15.276l-1.223,3.425c0,0 -2.69,-1.467 -5.381,-1.467c-1.957,0 -3.67,2.202 -3.425,6.114c0.244,3.914 0.244,6.85 3.425,6.85c3.669,0.244 5.381,-1.712 5.381,-1.712l1.468,3.424c0,0 -2.202,1.957 -5.871,1.957c-3.669,0 -9.051,-1.467 -9.051,-10.273c0,-8.807 6.85,-10.03 9.051,-9.785c3.424,0 5.626,1.467 5.626,1.467l0,0Zm-19.079,-2.934c1.486,0 2.691,-1.205 2.691,-2.691c0,-1.487 -1.205,-2.691 -2.691,-2.691c-1.487,0 -2.691,1.204 -2.691,2.691c0,1.486 1.204,2.691 2.691,2.691Zm-2.202,5.149l-7.338,0l0,15.887l-4.403,0l0,-15.887l-1.713,0l0,-3.67l1.713,0l0,-2.304c0,0 0.245,-8.352 9.295,-6.142c0.013,0.004 -0.734,3.931 -0.734,3.931c-3.913,-1.719 -4.158,2.211 -4.158,2.211l0,2.304l11.74,0l0,19.325l-4.402,0l0,-15.655l0,0Zm-29.598,-1.236l1.713,2.935c0,0 2.446,-2.69 5.626,-1.956c3.18,0.733 2.202,3.669 2.202,3.669c0,0 -9.541,0.489 -10.274,6.115c-0.734,5.626 2.691,6.849 5.87,6.849c3.18,0 5.382,-2.447 5.382,-2.447l0.489,1.958l3.914,0c0,0 -1.223,-0.734 -1.223,-3.425l0,-11.008c0,0 0,-4.402 -5.382,-5.136c-5.381,-0.734 -8.317,2.446 -8.317,2.446l0,0Zm9.541,7.583l0,4.898c0,0 -4.649,3.419 -5.872,0.483c-1.222,-4.158 5.872,-5.381 5.872,-5.381Zm-21.771,-9.785l0.978,3.425l0,15.9l4.158,0l0,-12.722c0,0 1.224,-2.933 5.382,-2.933l0.245,-3.67c-3.18,-0.489 -6.116,2.691 -6.116,2.691l-0.733,-2.691l-3.914,0l0,0Zm-1.712,0c0,0 -1.224,1.958 -1.224,4.159l0,16.389c0,0 -0.733,6.849 -7.093,7.338c-6.36,0.489 -8.072,-1.956 -8.072,-1.956l1.712,-3.181c0,0 2.202,1.957 5.137,1.957c2.935,0 4.158,-2.446 4.158,-6.115c0,0 -1.467,1.223 -3.424,1.223c-1.957,0 -7.827,-0.978 -8.316,-8.806c-0.491,-7.827 3.668,-11.252 7.582,-11.252c3.913,0 4.893,2.446 4.893,2.446l0.733,-2.202l3.914,0Zm-5.382,4.892l0,10.522c0,0 -1.223,0.975 -2.935,0.975c-1.713,0 -4.158,-1.223 -4.158,-5.87c0,-4.647 0.489,-7.338 3.424,-7.338c2.935,0 3.669,1.711 3.669,1.711l0,0Z"/></svg>