<svg clip-rule="evenodd" fill-rule="evenodd" stroke-linejoin="round" stroke-miterlimit="2" viewBox="0 0 180 60" xmlns="http://www.w3.org/2000/svg" xmlns:xlink="http://www.w3.org/1999/xlink"><clipPath id="a"><path clip-rule="evenodd" d="m0 0h180v60h-180z"/></clipPath><path d="m0 0h180v60h-180z" fill="none"/><g clip-path="url(#a)" fill="#e60012" fill-rule="nonzero"><path d="m14.651 32.606h5.398l7.474 12.089-.005-12.089h5.359v17.335h-5.35l-7.512-12.089v12.089h-5.368l.005-17.335m47.364 1.782h5.215v2.331h2.82v1.717h-2.82l.004 11.505h-5.225l.004-11.505h-2.833v-1.713h2.837l-.004-2.336m-26.153 4.027h5.212v11.526h-5.212zm-.013-5.812h5.225v3.542h-5.225zm93.462 11.483-.005 2.439c0 1.838-1.086 2.595-2.132 2.595-1.042 0-2.132-.757-2.132-2.595v-2.483l.004-2.405c0-1.83 1.09-2.582 2.128-2.582 1.042 0 2.132.753 2.132 2.582 0 .696 0 1.99.004 2.452v-.004.001zm-2.093-6.457c-4.208 0-7.621 2.898-7.621 6.47 0 3.577 3.413 6.475 7.621 6.475 4.209 0 7.617-2.898 7.617-6.475 0-3.573-3.407-6.47-7.617-6.47zm-14.463-5.022h5.147v17.335h-5.156l-.004-.666c-1.994 1.25-4.243 1.246-5.999.433-.467-.221-3.564-1.704-3.564-5.718 0-3.041 2.872-6.367 6.626-6.034 1.237.108 2.119.558 2.95 1.029v-6.38zm.039 11.513v-2.059c0-1.786-1.233-2.24-2.041-2.24-.83 0-2.046.454-2.046 2.24l.004 2.05-.004 2.054c0 1.778 1.215 2.245 2.041 2.245.813 0 2.046-.467 2.046-2.245v-2.046zm-59.514-6.241c1.946-.052 5.904 1.224 5.878 5.787-.009.813-.004 6.271-.004 6.271h-5.182v-7.569c0-1.003-.96-2.124-2.379-2.124-1.423 0-2.474 1.12-2.474 2.124l.004 7.569h-5.177l-.004-11.526 5.182-.004s-.009.93 0 1.215c.995-.952 2.435-1.691 4.156-1.743m42.364 0c1.951-.052 5.904 1.224 5.874 5.787-.004.813 0 6.271 0 6.271h-5.177v-7.569c0-1.003-.965-2.124-2.383-2.124-1.419 0-2.474 1.12-2.474 2.124l.004 7.569h-5.177l.004-11.526 5.173-.004v1.215c.999-.952 2.435-1.691 4.156-1.743"/><path d="m75.089 42.717c-.009-1.012.013-1.687.346-2.262.407-.709 1.155-1.051 1.834-1.051h-.004c.683 0 1.432.342 1.838 1.051.329.575.346 1.25.337 2.262zm4.334 3.477.004.696c0 2.111-1.388 2.578-2.158 2.578s-2.18-.467-2.18-2.578l.004-2.379s9.818.004 9.818 0c0-3.577-3.451-6.54-7.69-6.54s-7.677 2.898-7.677 6.475c0 3.573 3.438 6.47 7.677 6.47 3.516 0 6.488-2.007 7.396-4.727l-5.194.004zm56.404-12.015c.843 0 1.263.285 1.263.852 0 .389-.242.683-.649.783l.662 1.323h-.8l-.562-1.211h-.355v1.211h-.718v-2.958zm-.065-1.155c-1.475 0-2.669 1.198-2.669 2.669 0 1.475 1.194 2.669 2.669 2.669s2.669-1.194 2.669-2.669c0-1.471-1.194-2.669-2.669-2.669zm2.158 2.669c0 1.194-.969 2.158-2.158 2.158-1.194 0-2.158-.965-2.158-2.158 0-1.189.965-2.158 2.158-2.158 1.189 0 2.158.969 2.158 2.158zm-2.535-.199h.355c.411 0 .606-.125.606-.42 0-.307-.212-.441-.644-.441h-.316v.861zm-115.835 24.506c-11.717-.004-19.55-8.309-19.55-18.377 0-10.073 7.85-18.473 19.532-18.447h110.412c11.686-.026 19.537 8.373 19.537 18.447 0 10.069-7.833 18.373-19.55 18.377h-110.382zm.039-32.296c-9.282.017-14.976 6.22-14.976 13.892 0 7.668 5.66 13.923 14.976 13.888h110.304c9.316.035 14.974-6.22 14.974-13.888 0-7.673-5.692-13.875-14.974-13.892z"/></g></svg>