<svg clip-rule="evenodd" fill-rule="evenodd" stroke-linejoin="round" stroke-miterlimit="2" viewBox="0 0 180 60" xmlns="http://www.w3.org/2000/svg" xmlns:xlink="http://www.w3.org/1999/xlink"><linearGradient id="a"><stop offset="0" stop-color="#9459f0"/><stop offset="1" stop-color="#20e6ce"/></linearGradient><linearGradient id="b" gradientTransform="matrix(31.753 -31.6244 31.6244 31.753 .031587 59.8479)" gradientUnits="userSpaceOnUse" x1="0" x2="1" xlink:href="#a" y1="0" y2="0"/><linearGradient id="c" gradientTransform="matrix(31.8503 -31.8163 31.8163 31.8503 .031587 59.8479)" gradientUnits="userSpaceOnUse" x1="0" x2="1" xlink:href="#a" y1="0" y2="0"/><g fill="#fff"><path d="m43.464 37.98h2.586v1.152h.047c.659-.813 1.952-1.491 3.363-1.491 2.727 0 4.444 1.649 4.444 4.472v7.836h-2.657v-7.159c0-1.761-.658-2.778-2.422-2.778-1.646 0-2.68.971-2.68 2.507v7.43h-2.681z"/><path d="m56.257 37.934h2.647v11.869h-2.647z"/><path d="m61.256 37.98h2.587v1.152h.047c.658-.813 1.952-1.491 3.363-1.491 2.727 0 4.444 1.649 4.444 4.472v7.836h-2.658v-7.159c0-1.761-.658-2.778-2.421-2.778-1.646 0-2.681.971-2.681 2.507v7.43h-2.681z"/><path d="m83.938 48.089c-.989 1.202-2.474 2.153-4.735 2.153-3.406 0-5.889-2.43-5.889-6.301 0-3.87 2.483-6.3 5.77-6.3 3.264 0 5.7 2.385 5.7 6.3v.766h-8.75c.071 1.935 1.135 3.262 3.122 3.262 1.458 0 2.3-.704 2.859-1.398zm-1.779-5.318c-.095-1.597-1.065-2.857-3.075-2.857-1.939 0-2.932 1.485-3.026 2.857z"/><path d="m87.26 40.225h-1.888v-2.181h1.959v-2.894h2.549v2.894h2.235l.903 2.181h-3.115v5.957c0 1.224.26 1.758 1.629 1.758h.991v2.449h-1.204c-3.138 0-4.059-1.336-4.059-3.94z"/><path d="m99.625 52.88 6.186-14.946h-2.746l-3.236 8.211h-.047l-3.235-8.211h-2.793l4.795 11.383-1.481 3.563z"/><path d="m58.904 35.003c0 .729-.593 1.319-1.324 1.319s-1.323-.59-1.323-1.319c0-.728.592-1.318 1.323-1.318s1.324.59 1.324 1.318z"/><path d="m113.752 37.98h2.586v1.152h.047c.659-.813 1.952-1.491 3.363-1.491 2.727 0 4.444 1.649 4.444 4.472v7.836h-2.657v-7.159c0-1.761-.658-2.778-2.422-2.778-1.646 0-2.68.971-2.68 2.507v7.43h-2.681z"/><path d="m126.545 37.934h2.647v11.869h-2.647z"/><path d="m131.544 37.98h2.588v1.152h.045c.658-.813 1.953-1.491 3.364-1.491 2.727 0 4.443 1.649 4.443 4.472v7.836h-2.656v-7.159c0-1.761-.658-2.778-2.421-2.778-1.648 0-2.683.971-2.683 2.507v7.43h-2.68z"/><path d="m154.114 48.078c-.99 1.201-2.475 2.152-4.736 2.152-3.406 0-5.888-2.43-5.888-6.3 0-3.871 2.482-6.301 5.77-6.301 3.264 0 5.699 2.385 5.699 6.301v.764h-8.75c.071 1.936 1.135 3.263 3.122 3.263 1.458 0 2.3-.705 2.859-1.398zm-1.78-5.319c-.094-1.597-1.063-2.857-3.074-2.857-1.94 0-2.933 1.485-3.027 2.857z"/><path d="m129.192 35.003c0 .729-.593 1.319-1.324 1.319s-1.323-.59-1.323-1.319c0-.728.592-1.318 1.323-1.318s1.324.59 1.324 1.318z"/></g><path d="m31.882 59.848-31.85-31.816h31.85zm-2.507-29.312h-23.292l23.292 23.267z" fill="url(#b)"/><path d="m21.167 59.848h-21.135v-21.113zm-18.623-2.51h12.557l-12.557-12.544z" fill="url(#c)"/></svg>