<svg clip-rule="evenodd" fill-rule="evenodd" stroke-linejoin="round" stroke-miterlimit="2" viewBox="0 0 180 64" xmlns="http://www.w3.org/2000/svg"><g fill-rule="nonzero" transform="matrix(3.22914 0 0 3.22914 0 15.1)"><g fill="#fff"><path d="m17.098 7.535h-2.825v3.021c0 .104-.087.183-.183.183h-.471c-.105 0-.183-.087-.183-.183v-5.021c0-1.231.671-1.72 1.962-1.72.54 0 1.412.018 1.796.053.052.008.096.07.096.131v.462c0 .062-.035.114-.105.114h-1.779c-.976 0-1.133.262-1.133.96v1.284h2.825c.105 0 .183.087.183.183v.349c0 .096-.078.184-.183.184z"/><path d="m19.164 4.846h-.47c-.105 0-.184-.088-.184-.184v-.742c0-.105.088-.183.184-.183h.47c.105 0 .183.087.183.183v.742c0 .105-.087.184-.183.184zm-.017 5.884h-.445c-.104 0-.183-.087-.183-.183v-4.706c0-.105.087-.183.183-.183h.445c.105 0 .183.087.183.183v4.706c0 .105-.087.183-.183.183z"/><path d="m24.387 10.73h-.445c-.104 0-.183-.087-.183-.183v-3.039c0-.934-.314-1.213-1.011-1.213-.384 0-.82.148-1.247.358v3.894c0 .096-.087.183-.183.183h-.453c-.096 0-.175-.087-.175-.183v-4.706c0-.105.07-.183.175-.183h.462c.104 0 .174.087.174.183v.175c.506-.289.924-.428 1.465-.428 1.107 0 1.604.689 1.604 1.92v3.039c0 .105-.078.183-.183.183z"/><path d="m29.174 10.73h-.427c-.105 0-.184-.087-.184-.183v-.201c-.444.262-.906.454-1.421.454-.784 0-1.499-.341-1.499-1.493v-.113c0-.996.584-1.493 2.223-1.493h.68v-.367c0-.777-.27-1.039-.985-1.039-.602 0-1.038.035-1.413.07h-.043c-.088 0-.166-.026-.166-.149v-.323c0-.104.061-.157.192-.174.375-.061.802-.123 1.43-.123 1.281 0 1.796.647 1.796 1.738v3.222c0 .096-.087.174-.183.174zm-.628-2.453h-.68c-1.116 0-1.413.253-1.413.908v.113c0 .664.314.838.846.838.427 0 .802-.131 1.247-.366z"/><path d="m36.524 10.73h-.445c-.104 0-.183-.087-.183-.183v-3.266c0-.777-.357-.986-.837-.986-.331 0-.715.113-1.081.253.052.201.087.445.087.716v3.283c0 .096-.061.183-.166.183h-.488c-.096 0-.157-.087-.157-.183v-3.283c0-.803-.226-.969-.706-.969-.331 0-.741.166-1.125.358v3.894c0 .096-.061.183-.165.183h-.489c-.096 0-.157-.087-.157-.183v-4.706c0-.105.07-.183.175-.183h.462c.105 0 .174.087.174.183v.175c.366-.227.837-.437 1.343-.437.392 0 .689.113.924.375.506-.235 1.046-.375 1.526-.375.828 0 1.491.419 1.491 1.694v3.265c0 .114-.087.192-.183.192z"/><path d="m41.694 8.451h-3.086v.131c0 1.1.436 1.502 1.281 1.502.532 0 1.221-.035 1.64-.105h.043c.07 0 .148.035.148.131v.315c0 .122-.034.183-.183.209-.523.105-1.029.157-1.648.157-1.063 0-2.092-.497-2.092-2.217v-.83c0-1.318.724-2.156 2.049-2.156 1.343 0 2.023.847 2.023 2.156v.498c0 .131-.07.209-.175.209zm-.645-.698c0-1.039-.392-1.449-1.203-1.449-.794 0-1.238.454-1.238 1.449v.087h2.441z"/><path d="m45.217 10.756c-.183.027-.428.044-.602.044-.846 0-1.255-.218-1.255-1.24v-3.221l-.898-.105c-.105-.009-.175-.061-.175-.166v-.253c0-.105.07-.166.175-.166h.898v-.908c0-.096.061-.166.165-.184l.48-.069h.026c.07 0 .139.061.139.157v1.004h1.003c.105 0 .183.087.183.183v.314c0 .105-.087.184-.183.184h-.994v3.221c0 .507.131.585.497.585h.515c.13 0 .191.035.191.131v.323c0 .088-.043.14-.165.166z"/><path d="m48.329 6.295c-.427 0-.81.113-1.273.384v3.868c0 .096-.087.183-.183.183h-.453c-.096 0-.174-.087-.174-.183v-4.706c0-.105.069-.183.174-.183h.436c.105 0 .174.087.174.183v.192c.462-.323.881-.445 1.299-.445.131 0 .192.052.192.166v.375c0 .114-.07.166-.192.166z"/><path d="m50.143 4.846h-.471c-.105 0-.183-.088-.183-.184v-.742c0-.105.087-.183.183-.183h.471c.105 0 .183.087.183.183v.742c0 .105-.087.184-.183.184zm-.017 5.884h-.445c-.105 0-.183-.087-.183-.183v-4.706c0-.105.087-.183.183-.183h.445c.104 0 .183.087.183.183v4.706c0 .105-.088.183-.183.183z"/><path d="m55.636 10.73h-.637c-.061 0-.095-.017-.13-.07l-1.317-1.929-1.316 1.912c-.053.087-.07.096-.157.096h-.55c-.069 0-.113-.035-.113-.096 0-.026.009-.07.044-.122l1.656-2.375-1.569-2.261c-.026-.044-.044-.088-.044-.123 0-.061.052-.113.14-.113h.601c.07 0 .122.026.183.131l1.169 1.737 1.177-1.737c.087-.122.113-.131.192-.131h.531c.07 0 .122.043.122.113 0 .035-.017.07-.043.123l-1.552 2.208 1.683 2.428c.026.035.035.069.035.113.008.052-.018.096-.105.096z"/></g><path d="m3.993 1.266 1.256-1.266v5.195h-5.249l1.29-1.301h2.703z" fill="#4bbabc"/><path d="m6.862 9.473-1.264 1.257v-5.186h5.257l-1.29 1.301h-2.703z" fill="#fff"/></g></svg>