<svg clip-rule="evenodd" fill-rule="evenodd" stroke-linejoin="round" stroke-miterlimit="2" viewBox="0 0 180 60" xmlns="http://www.w3.org/2000/svg"><path d="m0 0h180v60h-180z" fill="none"/><path d="m13.473 43.668c0-1.068-.311-1.801-.931-2.194-.621-.393-1.766-.591-3.43-.591-1.694 0-2.817.184-3.367.549-.551.366-.825 1.097-.825 2.195 0 1.21.274 2.01.825 2.404.55.395 1.686.592 3.409.592 1.666 0 2.802-.212 3.409-.633.607-.422.91-1.197.91-2.323zm4.744 6.079h-4.785l.212-2.702h-.128c-.507 1.126-1.207 1.899-2.095 2.323-.89.421-2.253.632-4.088.632-2.682 0-4.568-.45-5.654-1.351-1.088-.899-1.63-2.462-1.63-4.686 0-2.278.55-3.888 1.65-4.832 1.101-.942 2.979-1.413 5.633-1.413 1.921 0 3.304.161 4.151.485.845.323 1.467.922 1.863 1.794h.084v-3.209c0-1.546-.269-2.581-.805-3.101s-1.595-.781-3.175-.781c-1.554 0-2.557.176-3.008.527-.452.353-.706 1.12-.763 2.301h-4.827c.029-2.42.593-4.016 1.693-4.791 1.102-.773 3.347-1.16 6.734-1.16 3.444 0 5.796.5 7.051 1.497 1.257 1 1.886 2.864 1.886 5.592v12.875zm22.277.001h-4.787l.254-3.377-.084-.043c-.931 2.448-3.035 3.672-6.311 3.672-2.314 0-4.008-.534-5.082-1.606-1.072-1.067-1.608-2.77-1.608-5.106v-13.252h4.786v12.113c0 1.604.225 2.673.677 3.207.452.535 1.37.801 2.754.801 1.805 0 3.028-.372 3.662-1.119.637-.744.954-2.157.954-4.24v-10.763h4.786v19.711zm20.073-12.072h-4.491c.029-.31.043-.661.043-1.055 0-1.21-.17-2.033-.508-2.47-.338-.435-.989-.654-1.949-.654-1.27 0-2.167.343-2.69 1.034-.522.689-.782 1.892-.782 3.609v11.607h-4.786v-19.711h4.786l-.297 2.742.086.043c.648-1.153 1.368-1.956 2.159-2.406.79-.45 1.864-.676 3.218-.676 1.891 0 3.232.5 4.024 1.5.789.997 1.186 2.665 1.186 5v1.435zm16.006.126v-.759c-.028-1.577-.31-2.589-.847-3.039s-1.709-.676-3.514-.676c-1.809 0-2.958.268-3.452.802-.494.535-.769 1.758-.827 3.672zm4.702 6.247c0 2.194-.643 3.734-1.927 4.622-1.286.886-3.508 1.329-6.671 1.329-3.924 0-6.508-.655-7.75-1.963-1.242-1.309-1.863-4.017-1.863-8.125 0-4.024.606-6.717 1.822-8.083 1.213-1.364 3.613-2.047 7.199-2.047 3.698 0 6.155.62 7.369 1.857 1.212 1.239 1.821 3.743 1.821 7.512v1.603h-13.384v.76c0 1.998.291 3.322.869 3.968.578.648 1.784.971 3.621.971 1.722 0 2.837-.184 3.345-.548.51-.367.777-1.183.805-2.449h4.744zm22.234 5.699h-5.888l-6.437-8.738h-1.143v8.738h-4.786v-28.153h4.786v16.124h1.227l5.337-7.682h5.505l-6.903 9.285 8.301 10.426zm14.738-6.08c0-1.068-.311-1.801-.932-2.194-.622-.393-1.765-.591-3.432-.591-1.694 0-2.817.184-3.367.549-.55.366-.825 1.097-.825 2.195 0 1.21.275 2.01.825 2.404.55.395 1.688.592 3.41.592 1.665 0 2.803-.212 3.41-.633.605-.422.91-1.197.91-2.323zm4.742 6.079h-4.786l.214-2.702h-.128c-.51 1.126-1.208 1.899-2.098 2.323-.89.421-2.251.632-4.086.632-2.684 0-4.567-.45-5.654-1.351-1.087-.899-1.631-2.462-1.631-4.686 0-2.278.551-3.888 1.652-4.832 1.101-.942 2.978-1.413 5.633-1.413 1.919 0 3.302.161 4.149.485.847.323 1.469.922 1.864 1.794h.084v-3.209c0-1.546-.267-2.581-.804-3.101s-1.596-.781-3.177-.781c-1.553 0-2.554.176-3.006.527-.452.353-.707 1.12-.763 2.301h-4.827c.027-2.42.592-4.016 1.693-4.791 1.101-.773 3.346-1.16 6.734-1.16 3.445 0 5.794.5 7.052 1.497 1.256 1 1.884 2.864 1.884 5.592v12.875z" fill="#fff" fill-rule="nonzero"/></svg>